<svg width="15" height="15" viewBox="0 0 15 15" fill="none" xmlns="http://www.w3.org/2000/svg">
<path d="M11.2145 1.25594C9.92119 1.25594 8.77872 1.90522 8.09599 2.89455C8.09599 2.89455 7.86547 3.23952 7.49984 3.23952C7.13453 3.23952 6.90401 2.89455 6.90401 2.89455C6.22095 1.90522 5.07914 1.25594 3.7855 1.25594C1.69469 1.25594 0 2.95062 0 5.04209C0 5.53594 0.097064 6.00584 0.268894 6.43837C1.32938 9.73133 6.0724 13.6027 7.49984 13.7441C8.9276 13.6027 13.67 9.73133 14.7311 6.43837C14.9029 6.00617 15 5.53594 15 5.04209C15 2.95062 13.3053 1.25594 11.2145 1.25594Z" fill="white"/>
</svg>
